<mxfile host="app.diagrams.net" modified="2022-06-28T00:05:54.063Z" agent="5.0 (Windows NT 10.0; Win64; x64) AppleWebKit/537.36 (KHTML, like Gecko) Chrome/103.0.5060.53 Safari/537.36 Edg/103.0.1264.37" etag="LGqq3GSmvoSrrFtBP6uH" version="20.0.3" type="github">
  <diagram id="R6Tvy45JMU7q3nPh8DtE" name="Page-1">
    <mxGraphModel dx="1568" dy="722" grid="1" gridSize="10" guides="1" tooltips="1" connect="1" arrows="1" fold="1" page="1" pageScale="1" pageWidth="1169" pageHeight="1654" math="0" shadow="0">
      <root>
        <mxCell id="0" />
        <mxCell id="1" parent="0" />
        <mxCell id="XQa5Tmitrg0EJ_k_re5p-2" value="Dependente" style="shape=table;startSize=30;container=1;collapsible=1;childLayout=tableLayout;fixedRows=1;rowLines=0;fontStyle=1;align=center;resizeLast=1;" parent="1" vertex="1">
          <mxGeometry x="890" y="620" width="180" height="160" as="geometry" />
        </mxCell>
        <mxCell id="XQa5Tmitrg0EJ_k_re5p-3" value="" style="shape=tableRow;horizontal=0;startSize=0;swimlaneHead=0;swimlaneBody=0;fillColor=none;collapsible=0;dropTarget=0;points=[[0,0.5],[1,0.5]];portConstraint=eastwest;top=0;left=0;right=0;bottom=1;" parent="XQa5Tmitrg0EJ_k_re5p-2" vertex="1">
          <mxGeometry y="30" width="180" height="30" as="geometry" />
        </mxCell>
        <mxCell id="XQa5Tmitrg0EJ_k_re5p-4" value="FK" style="shape=partialRectangle;connectable=0;fillColor=none;top=0;left=0;bottom=0;right=0;fontStyle=1;overflow=hidden;" parent="XQa5Tmitrg0EJ_k_re5p-3" vertex="1">
          <mxGeometry width="30" height="30" as="geometry">
            <mxRectangle width="30" height="30" as="alternateBounds" />
          </mxGeometry>
        </mxCell>
        <mxCell id="XQa5Tmitrg0EJ_k_re5p-5" value="id_proprietario" style="shape=partialRectangle;connectable=0;fillColor=none;top=0;left=0;bottom=0;right=0;align=left;spacingLeft=6;fontStyle=5;overflow=hidden;" parent="XQa5Tmitrg0EJ_k_re5p-3" vertex="1">
          <mxGeometry x="30" width="150" height="30" as="geometry">
            <mxRectangle width="150" height="30" as="alternateBounds" />
          </mxGeometry>
        </mxCell>
        <mxCell id="XQa5Tmitrg0EJ_k_re5p-6" value="" style="shape=tableRow;horizontal=0;startSize=0;swimlaneHead=0;swimlaneBody=0;fillColor=none;collapsible=0;dropTarget=0;points=[[0,0.5],[1,0.5]];portConstraint=eastwest;top=0;left=0;right=0;bottom=0;" parent="XQa5Tmitrg0EJ_k_re5p-2" vertex="1">
          <mxGeometry y="60" width="180" height="30" as="geometry" />
        </mxCell>
        <mxCell id="XQa5Tmitrg0EJ_k_re5p-7" value="" style="shape=partialRectangle;connectable=0;fillColor=none;top=0;left=0;bottom=0;right=0;editable=1;overflow=hidden;" parent="XQa5Tmitrg0EJ_k_re5p-6" vertex="1">
          <mxGeometry width="30" height="30" as="geometry">
            <mxRectangle width="30" height="30" as="alternateBounds" />
          </mxGeometry>
        </mxCell>
        <mxCell id="XQa5Tmitrg0EJ_k_re5p-8" value="Nome" style="shape=partialRectangle;connectable=0;fillColor=none;top=0;left=0;bottom=0;right=0;align=left;spacingLeft=6;overflow=hidden;" parent="XQa5Tmitrg0EJ_k_re5p-6" vertex="1">
          <mxGeometry x="30" width="150" height="30" as="geometry">
            <mxRectangle width="150" height="30" as="alternateBounds" />
          </mxGeometry>
        </mxCell>
        <mxCell id="XQa5Tmitrg0EJ_k_re5p-9" value="" style="shape=tableRow;horizontal=0;startSize=0;swimlaneHead=0;swimlaneBody=0;fillColor=none;collapsible=0;dropTarget=0;points=[[0,0.5],[1,0.5]];portConstraint=eastwest;top=0;left=0;right=0;bottom=0;" parent="XQa5Tmitrg0EJ_k_re5p-2" vertex="1">
          <mxGeometry y="90" width="180" height="30" as="geometry" />
        </mxCell>
        <mxCell id="XQa5Tmitrg0EJ_k_re5p-10" value="" style="shape=partialRectangle;connectable=0;fillColor=none;top=0;left=0;bottom=0;right=0;editable=1;overflow=hidden;" parent="XQa5Tmitrg0EJ_k_re5p-9" vertex="1">
          <mxGeometry width="30" height="30" as="geometry">
            <mxRectangle width="30" height="30" as="alternateBounds" />
          </mxGeometry>
        </mxCell>
        <mxCell id="XQa5Tmitrg0EJ_k_re5p-11" value="dt_nasc" style="shape=partialRectangle;connectable=0;fillColor=none;top=0;left=0;bottom=0;right=0;align=left;spacingLeft=6;overflow=hidden;" parent="XQa5Tmitrg0EJ_k_re5p-9" vertex="1">
          <mxGeometry x="30" width="150" height="30" as="geometry">
            <mxRectangle width="150" height="30" as="alternateBounds" />
          </mxGeometry>
        </mxCell>
        <mxCell id="XQa5Tmitrg0EJ_k_re5p-12" value="" style="shape=tableRow;horizontal=0;startSize=0;swimlaneHead=0;swimlaneBody=0;fillColor=none;collapsible=0;dropTarget=0;points=[[0,0.5],[1,0.5]];portConstraint=eastwest;top=0;left=0;right=0;bottom=0;" parent="XQa5Tmitrg0EJ_k_re5p-2" vertex="1">
          <mxGeometry y="120" width="180" height="30" as="geometry" />
        </mxCell>
        <mxCell id="XQa5Tmitrg0EJ_k_re5p-13" value="" style="shape=partialRectangle;connectable=0;fillColor=none;top=0;left=0;bottom=0;right=0;editable=1;overflow=hidden;" parent="XQa5Tmitrg0EJ_k_re5p-12" vertex="1">
          <mxGeometry width="30" height="30" as="geometry">
            <mxRectangle width="30" height="30" as="alternateBounds" />
          </mxGeometry>
        </mxCell>
        <mxCell id="XQa5Tmitrg0EJ_k_re5p-14" value="" style="shape=partialRectangle;connectable=0;fillColor=none;top=0;left=0;bottom=0;right=0;align=left;spacingLeft=6;overflow=hidden;" parent="XQa5Tmitrg0EJ_k_re5p-12" vertex="1">
          <mxGeometry x="30" width="150" height="30" as="geometry">
            <mxRectangle width="150" height="30" as="alternateBounds" />
          </mxGeometry>
        </mxCell>
        <mxCell id="XQa5Tmitrg0EJ_k_re5p-15" value="ProprietÃ¡rio" style="shape=table;startSize=30;container=1;collapsible=1;childLayout=tableLayout;fixedRows=1;rowLines=0;fontStyle=1;align=center;resizeLast=1;" parent="1" vertex="1">
          <mxGeometry x="570" y="620" width="180" height="170" as="geometry" />
        </mxCell>
        <mxCell id="XQa5Tmitrg0EJ_k_re5p-16" value="" style="shape=tableRow;horizontal=0;startSize=0;swimlaneHead=0;swimlaneBody=0;fillColor=none;collapsible=0;dropTarget=0;points=[[0,0.5],[1,0.5]];portConstraint=eastwest;top=0;left=0;right=0;bottom=1;" parent="XQa5Tmitrg0EJ_k_re5p-15" vertex="1">
          <mxGeometry y="30" width="180" height="40" as="geometry" />
        </mxCell>
        <mxCell id="XQa5Tmitrg0EJ_k_re5p-17" value="PK" style="shape=partialRectangle;connectable=0;fillColor=none;top=0;left=0;bottom=0;right=0;fontStyle=1;overflow=hidden;" parent="XQa5Tmitrg0EJ_k_re5p-16" vertex="1">
          <mxGeometry width="30" height="40" as="geometry">
            <mxRectangle width="30" height="40" as="alternateBounds" />
          </mxGeometry>
        </mxCell>
        <mxCell id="XQa5Tmitrg0EJ_k_re5p-18" value="id_proprietario" style="shape=partialRectangle;connectable=0;fillColor=none;top=0;left=0;bottom=0;right=0;align=left;spacingLeft=6;fontStyle=5;overflow=hidden;" parent="XQa5Tmitrg0EJ_k_re5p-16" vertex="1">
          <mxGeometry x="30" width="150" height="40" as="geometry">
            <mxRectangle width="150" height="40" as="alternateBounds" />
          </mxGeometry>
        </mxCell>
        <mxCell id="XQa5Tmitrg0EJ_k_re5p-19" value="" style="shape=tableRow;horizontal=0;startSize=0;swimlaneHead=0;swimlaneBody=0;fillColor=none;collapsible=0;dropTarget=0;points=[[0,0.5],[1,0.5]];portConstraint=eastwest;top=0;left=0;right=0;bottom=0;" parent="XQa5Tmitrg0EJ_k_re5p-15" vertex="1">
          <mxGeometry y="70" width="180" height="30" as="geometry" />
        </mxCell>
        <mxCell id="XQa5Tmitrg0EJ_k_re5p-20" value="" style="shape=partialRectangle;connectable=0;fillColor=none;top=0;left=0;bottom=0;right=0;editable=1;overflow=hidden;" parent="XQa5Tmitrg0EJ_k_re5p-19" vertex="1">
          <mxGeometry width="30" height="30" as="geometry">
            <mxRectangle width="30" height="30" as="alternateBounds" />
          </mxGeometry>
        </mxCell>
        <mxCell id="XQa5Tmitrg0EJ_k_re5p-21" value="emails" style="shape=partialRectangle;connectable=0;fillColor=none;top=0;left=0;bottom=0;right=0;align=left;spacingLeft=6;overflow=hidden;" parent="XQa5Tmitrg0EJ_k_re5p-19" vertex="1">
          <mxGeometry x="30" width="150" height="30" as="geometry">
            <mxRectangle width="150" height="30" as="alternateBounds" />
          </mxGeometry>
        </mxCell>
        <mxCell id="XQa5Tmitrg0EJ_k_re5p-22" value="" style="shape=tableRow;horizontal=0;startSize=0;swimlaneHead=0;swimlaneBody=0;fillColor=none;collapsible=0;dropTarget=0;points=[[0,0.5],[1,0.5]];portConstraint=eastwest;top=0;left=0;right=0;bottom=0;" parent="XQa5Tmitrg0EJ_k_re5p-15" vertex="1">
          <mxGeometry y="100" width="180" height="30" as="geometry" />
        </mxCell>
        <mxCell id="XQa5Tmitrg0EJ_k_re5p-23" value="" style="shape=partialRectangle;connectable=0;fillColor=none;top=0;left=0;bottom=0;right=0;editable=1;overflow=hidden;" parent="XQa5Tmitrg0EJ_k_re5p-22" vertex="1">
          <mxGeometry width="30" height="30" as="geometry">
            <mxRectangle width="30" height="30" as="alternateBounds" />
          </mxGeometry>
        </mxCell>
        <mxCell id="XQa5Tmitrg0EJ_k_re5p-24" value="CPF" style="shape=partialRectangle;connectable=0;fillColor=none;top=0;left=0;bottom=0;right=0;align=left;spacingLeft=6;overflow=hidden;" parent="XQa5Tmitrg0EJ_k_re5p-22" vertex="1">
          <mxGeometry x="30" width="150" height="30" as="geometry">
            <mxRectangle width="150" height="30" as="alternateBounds" />
          </mxGeometry>
        </mxCell>
        <mxCell id="XQa5Tmitrg0EJ_k_re5p-25" value="" style="shape=tableRow;horizontal=0;startSize=0;swimlaneHead=0;swimlaneBody=0;fillColor=none;collapsible=0;dropTarget=0;points=[[0,0.5],[1,0.5]];portConstraint=eastwest;top=0;left=0;right=0;bottom=0;" parent="XQa5Tmitrg0EJ_k_re5p-15" vertex="1">
          <mxGeometry y="130" width="180" height="30" as="geometry" />
        </mxCell>
        <mxCell id="XQa5Tmitrg0EJ_k_re5p-26" value="" style="shape=partialRectangle;connectable=0;fillColor=none;top=0;left=0;bottom=0;right=0;editable=1;overflow=hidden;" parent="XQa5Tmitrg0EJ_k_re5p-25" vertex="1">
          <mxGeometry width="30" height="30" as="geometry">
            <mxRectangle width="30" height="30" as="alternateBounds" />
          </mxGeometry>
        </mxCell>
        <mxCell id="XQa5Tmitrg0EJ_k_re5p-27" value="telefones" style="shape=partialRectangle;connectable=0;fillColor=none;top=0;left=0;bottom=0;right=0;align=left;spacingLeft=6;overflow=hidden;" parent="XQa5Tmitrg0EJ_k_re5p-25" vertex="1">
          <mxGeometry x="30" width="150" height="30" as="geometry">
            <mxRectangle width="150" height="30" as="alternateBounds" />
          </mxGeometry>
        </mxCell>
        <mxCell id="XQa5Tmitrg0EJ_k_re5p-30" value="" style="endArrow=none;html=1;rounded=0;" parent="1" edge="1">
          <mxGeometry relative="1" as="geometry">
            <mxPoint x="730" y="690" as="sourcePoint" />
            <mxPoint x="890" y="690" as="targetPoint" />
          </mxGeometry>
        </mxCell>
        <mxCell id="XQa5Tmitrg0EJ_k_re5p-31" value="N" style="resizable=0;html=1;align=right;verticalAlign=bottom;" parent="XQa5Tmitrg0EJ_k_re5p-30" connectable="0" vertex="1">
          <mxGeometry x="1" relative="1" as="geometry" />
        </mxCell>
        <mxCell id="XQa5Tmitrg0EJ_k_re5p-58" value="Proprietario_fazenda" style="shape=table;startSize=30;container=1;collapsible=1;childLayout=tableLayout;fixedRows=1;rowLines=0;fontStyle=1;align=center;resizeLast=1;" parent="1" vertex="1">
          <mxGeometry x="260" y="630" width="180" height="130" as="geometry" />
        </mxCell>
        <mxCell id="XQa5Tmitrg0EJ_k_re5p-59" value="" style="shape=tableRow;horizontal=0;startSize=0;swimlaneHead=0;swimlaneBody=0;fillColor=none;collapsible=0;dropTarget=0;points=[[0,0.5],[1,0.5]];portConstraint=eastwest;top=0;left=0;right=0;bottom=0;" parent="XQa5Tmitrg0EJ_k_re5p-58" vertex="1">
          <mxGeometry y="30" width="180" height="30" as="geometry" />
        </mxCell>
        <mxCell id="XQa5Tmitrg0EJ_k_re5p-60" value="FK" style="shape=partialRectangle;connectable=0;fillColor=none;top=0;left=0;bottom=0;right=0;fontStyle=1;overflow=hidden;" parent="XQa5Tmitrg0EJ_k_re5p-59" vertex="1">
          <mxGeometry width="60" height="30" as="geometry">
            <mxRectangle width="60" height="30" as="alternateBounds" />
          </mxGeometry>
        </mxCell>
        <mxCell id="XQa5Tmitrg0EJ_k_re5p-61" value="id_proprietario" style="shape=partialRectangle;connectable=0;fillColor=none;top=0;left=0;bottom=0;right=0;align=left;spacingLeft=6;fontStyle=5;overflow=hidden;" parent="XQa5Tmitrg0EJ_k_re5p-59" vertex="1">
          <mxGeometry x="60" width="120" height="30" as="geometry">
            <mxRectangle width="120" height="30" as="alternateBounds" />
          </mxGeometry>
        </mxCell>
        <mxCell id="XQa5Tmitrg0EJ_k_re5p-62" value="" style="shape=tableRow;horizontal=0;startSize=0;swimlaneHead=0;swimlaneBody=0;fillColor=none;collapsible=0;dropTarget=0;points=[[0,0.5],[1,0.5]];portConstraint=eastwest;top=0;left=0;right=0;bottom=1;" parent="XQa5Tmitrg0EJ_k_re5p-58" vertex="1">
          <mxGeometry y="60" width="180" height="30" as="geometry" />
        </mxCell>
        <mxCell id="XQa5Tmitrg0EJ_k_re5p-63" value="FK" style="shape=partialRectangle;connectable=0;fillColor=none;top=0;left=0;bottom=0;right=0;fontStyle=1;overflow=hidden;" parent="XQa5Tmitrg0EJ_k_re5p-62" vertex="1">
          <mxGeometry width="60" height="30" as="geometry">
            <mxRectangle width="60" height="30" as="alternateBounds" />
          </mxGeometry>
        </mxCell>
        <mxCell id="XQa5Tmitrg0EJ_k_re5p-64" value="cod_fazenda" style="shape=partialRectangle;connectable=0;fillColor=none;top=0;left=0;bottom=0;right=0;align=left;spacingLeft=6;fontStyle=5;overflow=hidden;" parent="XQa5Tmitrg0EJ_k_re5p-62" vertex="1">
          <mxGeometry x="60" width="120" height="30" as="geometry">
            <mxRectangle width="120" height="30" as="alternateBounds" />
          </mxGeometry>
        </mxCell>
        <mxCell id="XQa5Tmitrg0EJ_k_re5p-65" value="" style="shape=tableRow;horizontal=0;startSize=0;swimlaneHead=0;swimlaneBody=0;fillColor=none;collapsible=0;dropTarget=0;points=[[0,0.5],[1,0.5]];portConstraint=eastwest;top=0;left=0;right=0;bottom=0;" parent="XQa5Tmitrg0EJ_k_re5p-58" vertex="1">
          <mxGeometry y="90" width="180" height="20" as="geometry" />
        </mxCell>
        <mxCell id="XQa5Tmitrg0EJ_k_re5p-66" value="" style="shape=partialRectangle;connectable=0;fillColor=none;top=0;left=0;bottom=0;right=0;editable=1;overflow=hidden;" parent="XQa5Tmitrg0EJ_k_re5p-65" vertex="1">
          <mxGeometry width="60" height="20" as="geometry">
            <mxRectangle width="60" height="20" as="alternateBounds" />
          </mxGeometry>
        </mxCell>
        <mxCell id="XQa5Tmitrg0EJ_k_re5p-67" value="" style="shape=partialRectangle;connectable=0;fillColor=none;top=0;left=0;bottom=0;right=0;align=left;spacingLeft=6;overflow=hidden;" parent="XQa5Tmitrg0EJ_k_re5p-65" vertex="1">
          <mxGeometry x="60" width="120" height="20" as="geometry">
            <mxRectangle width="120" height="20" as="alternateBounds" />
          </mxGeometry>
        </mxCell>
        <mxCell id="XQa5Tmitrg0EJ_k_re5p-68" value="" style="shape=tableRow;horizontal=0;startSize=0;swimlaneHead=0;swimlaneBody=0;fillColor=none;collapsible=0;dropTarget=0;points=[[0,0.5],[1,0.5]];portConstraint=eastwest;top=0;left=0;right=0;bottom=0;" parent="XQa5Tmitrg0EJ_k_re5p-58" vertex="1">
          <mxGeometry y="110" width="180" height="20" as="geometry" />
        </mxCell>
        <mxCell id="XQa5Tmitrg0EJ_k_re5p-69" value="" style="shape=partialRectangle;connectable=0;fillColor=none;top=0;left=0;bottom=0;right=0;editable=1;overflow=hidden;" parent="XQa5Tmitrg0EJ_k_re5p-68" vertex="1">
          <mxGeometry width="60" height="20" as="geometry">
            <mxRectangle width="60" height="20" as="alternateBounds" />
          </mxGeometry>
        </mxCell>
        <mxCell id="XQa5Tmitrg0EJ_k_re5p-70" value="" style="shape=partialRectangle;connectable=0;fillColor=none;top=0;left=0;bottom=0;right=0;align=left;spacingLeft=6;overflow=hidden;" parent="XQa5Tmitrg0EJ_k_re5p-68" vertex="1">
          <mxGeometry x="60" width="120" height="20" as="geometry">
            <mxRectangle width="120" height="20" as="alternateBounds" />
          </mxGeometry>
        </mxCell>
        <mxCell id="XQa5Tmitrg0EJ_k_re5p-71" value="" style="endArrow=none;html=1;rounded=0;" parent="1" edge="1">
          <mxGeometry relative="1" as="geometry">
            <mxPoint x="440" y="660" as="sourcePoint" />
            <mxPoint x="600" y="660" as="targetPoint" />
          </mxGeometry>
        </mxCell>
        <mxCell id="XQa5Tmitrg0EJ_k_re5p-72" value="N" style="resizable=0;html=1;align=right;verticalAlign=bottom;" parent="XQa5Tmitrg0EJ_k_re5p-71" connectable="0" vertex="1">
          <mxGeometry x="1" relative="1" as="geometry">
            <mxPoint x="-140" as="offset" />
          </mxGeometry>
        </mxCell>
        <mxCell id="XQa5Tmitrg0EJ_k_re5p-86" value="" style="endArrow=none;html=1;rounded=0;" parent="1" edge="1">
          <mxGeometry relative="1" as="geometry">
            <mxPoint x="100" y="660" as="sourcePoint" />
            <mxPoint x="260" y="660" as="targetPoint" />
          </mxGeometry>
        </mxCell>
        <mxCell id="XQa5Tmitrg0EJ_k_re5p-87" value="N" style="resizable=0;html=1;align=right;verticalAlign=bottom;" parent="XQa5Tmitrg0EJ_k_re5p-86" connectable="0" vertex="1">
          <mxGeometry x="1" relative="1" as="geometry">
            <mxPoint x="-10" as="offset" />
          </mxGeometry>
        </mxCell>
        <mxCell id="XQa5Tmitrg0EJ_k_re5p-89" value="funcionario" style="shape=table;startSize=30;container=1;collapsible=1;childLayout=tableLayout;fixedRows=1;rowLines=0;fontStyle=1;align=center;resizeLast=1;" parent="1" vertex="1">
          <mxGeometry x="-400" y="590" width="180" height="210" as="geometry" />
        </mxCell>
        <mxCell id="XQa5Tmitrg0EJ_k_re5p-90" value="" style="shape=tableRow;horizontal=0;startSize=0;swimlaneHead=0;swimlaneBody=0;fillColor=none;collapsible=0;dropTarget=0;points=[[0,0.5],[1,0.5]];portConstraint=eastwest;top=0;left=0;right=0;bottom=1;" parent="XQa5Tmitrg0EJ_k_re5p-89" vertex="1">
          <mxGeometry y="30" width="180" height="30" as="geometry" />
        </mxCell>
        <mxCell id="XQa5Tmitrg0EJ_k_re5p-91" value="PK" style="shape=partialRectangle;connectable=0;fillColor=none;top=0;left=0;bottom=0;right=0;fontStyle=1;overflow=hidden;" parent="XQa5Tmitrg0EJ_k_re5p-90" vertex="1">
          <mxGeometry width="30" height="30" as="geometry">
            <mxRectangle width="30" height="30" as="alternateBounds" />
          </mxGeometry>
        </mxCell>
        <mxCell id="XQa5Tmitrg0EJ_k_re5p-92" value="id_funcionario" style="shape=partialRectangle;connectable=0;fillColor=none;top=0;left=0;bottom=0;right=0;align=left;spacingLeft=6;fontStyle=5;overflow=hidden;" parent="XQa5Tmitrg0EJ_k_re5p-90" vertex="1">
          <mxGeometry x="30" width="150" height="30" as="geometry">
            <mxRectangle width="150" height="30" as="alternateBounds" />
          </mxGeometry>
        </mxCell>
        <mxCell id="XQa5Tmitrg0EJ_k_re5p-93" value="" style="shape=tableRow;horizontal=0;startSize=0;swimlaneHead=0;swimlaneBody=0;fillColor=none;collapsible=0;dropTarget=0;points=[[0,0.5],[1,0.5]];portConstraint=eastwest;top=0;left=0;right=0;bottom=0;" parent="XQa5Tmitrg0EJ_k_re5p-89" vertex="1">
          <mxGeometry y="60" width="180" height="30" as="geometry" />
        </mxCell>
        <mxCell id="XQa5Tmitrg0EJ_k_re5p-94" value="FK" style="shape=partialRectangle;connectable=0;fillColor=none;top=0;left=0;bottom=0;right=0;editable=1;overflow=hidden;" parent="XQa5Tmitrg0EJ_k_re5p-93" vertex="1">
          <mxGeometry width="30" height="30" as="geometry">
            <mxRectangle width="30" height="30" as="alternateBounds" />
          </mxGeometry>
        </mxCell>
        <mxCell id="XQa5Tmitrg0EJ_k_re5p-95" value="cod_projeto" style="shape=partialRectangle;connectable=0;fillColor=none;top=0;left=0;bottom=0;right=0;align=left;spacingLeft=6;overflow=hidden;" parent="XQa5Tmitrg0EJ_k_re5p-93" vertex="1">
          <mxGeometry x="30" width="150" height="30" as="geometry">
            <mxRectangle width="150" height="30" as="alternateBounds" />
          </mxGeometry>
        </mxCell>
        <mxCell id="XQa5Tmitrg0EJ_k_re5p-96" value="" style="shape=tableRow;horizontal=0;startSize=0;swimlaneHead=0;swimlaneBody=0;fillColor=none;collapsible=0;dropTarget=0;points=[[0,0.5],[1,0.5]];portConstraint=eastwest;top=0;left=0;right=0;bottom=0;" parent="XQa5Tmitrg0EJ_k_re5p-89" vertex="1">
          <mxGeometry y="90" width="180" height="30" as="geometry" />
        </mxCell>
        <mxCell id="XQa5Tmitrg0EJ_k_re5p-97" value="" style="shape=partialRectangle;connectable=0;fillColor=none;top=0;left=0;bottom=0;right=0;editable=1;overflow=hidden;" parent="XQa5Tmitrg0EJ_k_re5p-96" vertex="1">
          <mxGeometry width="30" height="30" as="geometry">
            <mxRectangle width="30" height="30" as="alternateBounds" />
          </mxGeometry>
        </mxCell>
        <mxCell id="XQa5Tmitrg0EJ_k_re5p-98" value="CPF" style="shape=partialRectangle;connectable=0;fillColor=none;top=0;left=0;bottom=0;right=0;align=left;spacingLeft=6;overflow=hidden;" parent="XQa5Tmitrg0EJ_k_re5p-96" vertex="1">
          <mxGeometry x="30" width="150" height="30" as="geometry">
            <mxRectangle width="150" height="30" as="alternateBounds" />
          </mxGeometry>
        </mxCell>
        <mxCell id="XQa5Tmitrg0EJ_k_re5p-99" value="" style="shape=tableRow;horizontal=0;startSize=0;swimlaneHead=0;swimlaneBody=0;fillColor=none;collapsible=0;dropTarget=0;points=[[0,0.5],[1,0.5]];portConstraint=eastwest;top=0;left=0;right=0;bottom=0;" parent="XQa5Tmitrg0EJ_k_re5p-89" vertex="1">
          <mxGeometry y="120" width="180" height="30" as="geometry" />
        </mxCell>
        <mxCell id="XQa5Tmitrg0EJ_k_re5p-100" value="" style="shape=partialRectangle;connectable=0;fillColor=none;top=0;left=0;bottom=0;right=0;editable=1;overflow=hidden;" parent="XQa5Tmitrg0EJ_k_re5p-99" vertex="1">
          <mxGeometry width="30" height="30" as="geometry">
            <mxRectangle width="30" height="30" as="alternateBounds" />
          </mxGeometry>
        </mxCell>
        <mxCell id="XQa5Tmitrg0EJ_k_re5p-101" value="end" style="shape=partialRectangle;connectable=0;fillColor=none;top=0;left=0;bottom=0;right=0;align=left;spacingLeft=6;overflow=hidden;" parent="XQa5Tmitrg0EJ_k_re5p-99" vertex="1">
          <mxGeometry x="30" width="150" height="30" as="geometry">
            <mxRectangle width="150" height="30" as="alternateBounds" />
          </mxGeometry>
        </mxCell>
        <mxCell id="XQa5Tmitrg0EJ_k_re5p-102" value="fazenda" style="shape=table;startSize=30;container=1;collapsible=1;childLayout=tableLayout;fixedRows=1;rowLines=0;fontStyle=1;align=center;resizeLast=1;" parent="1" vertex="1">
          <mxGeometry x="-80" y="600" width="180" height="160" as="geometry" />
        </mxCell>
        <mxCell id="XQa5Tmitrg0EJ_k_re5p-103" value="" style="shape=tableRow;horizontal=0;startSize=0;swimlaneHead=0;swimlaneBody=0;fillColor=none;collapsible=0;dropTarget=0;points=[[0,0.5],[1,0.5]];portConstraint=eastwest;top=0;left=0;right=0;bottom=0;" parent="XQa5Tmitrg0EJ_k_re5p-102" vertex="1">
          <mxGeometry y="30" width="180" height="30" as="geometry" />
        </mxCell>
        <mxCell id="XQa5Tmitrg0EJ_k_re5p-104" value="PK" style="shape=partialRectangle;connectable=0;fillColor=none;top=0;left=0;bottom=0;right=0;fontStyle=1;overflow=hidden;" parent="XQa5Tmitrg0EJ_k_re5p-103" vertex="1">
          <mxGeometry width="60" height="30" as="geometry">
            <mxRectangle width="60" height="30" as="alternateBounds" />
          </mxGeometry>
        </mxCell>
        <mxCell id="XQa5Tmitrg0EJ_k_re5p-105" value="cod_fazenda" style="shape=partialRectangle;connectable=0;fillColor=none;top=0;left=0;bottom=0;right=0;align=left;spacingLeft=6;fontStyle=5;overflow=hidden;" parent="XQa5Tmitrg0EJ_k_re5p-103" vertex="1">
          <mxGeometry x="60" width="120" height="30" as="geometry">
            <mxRectangle width="120" height="30" as="alternateBounds" />
          </mxGeometry>
        </mxCell>
        <mxCell id="XQa5Tmitrg0EJ_k_re5p-106" value="" style="shape=tableRow;horizontal=0;startSize=0;swimlaneHead=0;swimlaneBody=0;fillColor=none;collapsible=0;dropTarget=0;points=[[0,0.5],[1,0.5]];portConstraint=eastwest;top=0;left=0;right=0;bottom=1;" parent="XQa5Tmitrg0EJ_k_re5p-102" vertex="1">
          <mxGeometry y="60" width="180" height="30" as="geometry" />
        </mxCell>
        <mxCell id="XQa5Tmitrg0EJ_k_re5p-107" value="FK" style="shape=partialRectangle;connectable=0;fillColor=none;top=0;left=0;bottom=0;right=0;fontStyle=1;overflow=hidden;" parent="XQa5Tmitrg0EJ_k_re5p-106" vertex="1">
          <mxGeometry width="60" height="30" as="geometry">
            <mxRectangle width="60" height="30" as="alternateBounds" />
          </mxGeometry>
        </mxCell>
        <mxCell id="XQa5Tmitrg0EJ_k_re5p-108" value="id_funcionario" style="shape=partialRectangle;connectable=0;fillColor=none;top=0;left=0;bottom=0;right=0;align=left;spacingLeft=6;fontStyle=5;overflow=hidden;" parent="XQa5Tmitrg0EJ_k_re5p-106" vertex="1">
          <mxGeometry x="60" width="120" height="30" as="geometry">
            <mxRectangle width="120" height="30" as="alternateBounds" />
          </mxGeometry>
        </mxCell>
        <mxCell id="XQa5Tmitrg0EJ_k_re5p-109" value="" style="shape=tableRow;horizontal=0;startSize=0;swimlaneHead=0;swimlaneBody=0;fillColor=none;collapsible=0;dropTarget=0;points=[[0,0.5],[1,0.5]];portConstraint=eastwest;top=0;left=0;right=0;bottom=0;" parent="XQa5Tmitrg0EJ_k_re5p-102" vertex="1">
          <mxGeometry y="90" width="180" height="30" as="geometry" />
        </mxCell>
        <mxCell id="XQa5Tmitrg0EJ_k_re5p-110" value="" style="shape=partialRectangle;connectable=0;fillColor=none;top=0;left=0;bottom=0;right=0;editable=1;overflow=hidden;" parent="XQa5Tmitrg0EJ_k_re5p-109" vertex="1">
          <mxGeometry width="60" height="30" as="geometry">
            <mxRectangle width="60" height="30" as="alternateBounds" />
          </mxGeometry>
        </mxCell>
        <mxCell id="XQa5Tmitrg0EJ_k_re5p-111" value="nome" style="shape=partialRectangle;connectable=0;fillColor=none;top=0;left=0;bottom=0;right=0;align=left;spacingLeft=6;overflow=hidden;" parent="XQa5Tmitrg0EJ_k_re5p-109" vertex="1">
          <mxGeometry x="60" width="120" height="30" as="geometry">
            <mxRectangle width="120" height="30" as="alternateBounds" />
          </mxGeometry>
        </mxCell>
        <mxCell id="XQa5Tmitrg0EJ_k_re5p-112" value="" style="shape=tableRow;horizontal=0;startSize=0;swimlaneHead=0;swimlaneBody=0;fillColor=none;collapsible=0;dropTarget=0;points=[[0,0.5],[1,0.5]];portConstraint=eastwest;top=0;left=0;right=0;bottom=0;" parent="XQa5Tmitrg0EJ_k_re5p-102" vertex="1">
          <mxGeometry y="120" width="180" height="30" as="geometry" />
        </mxCell>
        <mxCell id="XQa5Tmitrg0EJ_k_re5p-113" value="" style="shape=partialRectangle;connectable=0;fillColor=none;top=0;left=0;bottom=0;right=0;editable=1;overflow=hidden;" parent="XQa5Tmitrg0EJ_k_re5p-112" vertex="1">
          <mxGeometry width="60" height="30" as="geometry">
            <mxRectangle width="60" height="30" as="alternateBounds" />
          </mxGeometry>
        </mxCell>
        <mxCell id="XQa5Tmitrg0EJ_k_re5p-114" value="" style="shape=partialRectangle;connectable=0;fillColor=none;top=0;left=0;bottom=0;right=0;align=left;spacingLeft=6;overflow=hidden;" parent="XQa5Tmitrg0EJ_k_re5p-112" vertex="1">
          <mxGeometry x="60" width="120" height="30" as="geometry">
            <mxRectangle width="120" height="30" as="alternateBounds" />
          </mxGeometry>
        </mxCell>
        <mxCell id="XQa5Tmitrg0EJ_k_re5p-118" value="" style="endArrow=none;html=1;rounded=0;" parent="1" edge="1">
          <mxGeometry relative="1" as="geometry">
            <mxPoint x="-240" y="650" as="sourcePoint" />
            <mxPoint x="-80" y="650" as="targetPoint" />
          </mxGeometry>
        </mxCell>
        <mxCell id="XQa5Tmitrg0EJ_k_re5p-119" value="N" style="resizable=0;html=1;align=right;verticalAlign=bottom;" parent="XQa5Tmitrg0EJ_k_re5p-118" connectable="0" vertex="1">
          <mxGeometry x="1" relative="1" as="geometry">
            <mxPoint x="-10" as="offset" />
          </mxGeometry>
        </mxCell>
        <mxCell id="XQa5Tmitrg0EJ_k_re5p-120" value="" style="endArrow=none;html=1;rounded=0;" parent="1" edge="1">
          <mxGeometry relative="1" as="geometry">
            <mxPoint x="-460" y="400" as="sourcePoint" />
            <mxPoint x="-400" y="650" as="targetPoint" />
            <Array as="points">
              <mxPoint x="-480" y="400" />
              <mxPoint x="-480" y="650" />
            </Array>
          </mxGeometry>
        </mxCell>
        <mxCell id="XQa5Tmitrg0EJ_k_re5p-121" value="N" style="resizable=0;html=1;align=right;verticalAlign=bottom;" parent="XQa5Tmitrg0EJ_k_re5p-120" connectable="0" vertex="1">
          <mxGeometry x="1" relative="1" as="geometry">
            <mxPoint x="-10" as="offset" />
          </mxGeometry>
        </mxCell>
        <mxCell id="XQa5Tmitrg0EJ_k_re5p-122" value="" style="line;strokeWidth=1;rotatable=0;dashed=0;labelPosition=right;align=left;verticalAlign=middle;spacingTop=0;spacingLeft=6;points=[];portConstraint=eastwest;" parent="1" vertex="1">
          <mxGeometry x="-400" y="675" width="180" height="10" as="geometry" />
        </mxCell>
        <mxCell id="XQa5Tmitrg0EJ_k_re5p-124" value="telefones" style="text;strokeColor=none;fillColor=none;spacingLeft=4;spacingRight=4;overflow=hidden;rotatable=0;points=[[0,0.5],[1,0.5]];portConstraint=eastwest;fontSize=12;" parent="1" vertex="1">
          <mxGeometry x="-370" y="740" width="150" height="30" as="geometry" />
        </mxCell>
        <mxCell id="XQa5Tmitrg0EJ_k_re5p-125" value="emails" style="text;strokeColor=none;fillColor=none;spacingLeft=4;spacingRight=4;overflow=hidden;rotatable=0;points=[[0,0.5],[1,0.5]];portConstraint=eastwest;fontSize=12;" parent="1" vertex="1">
          <mxGeometry x="-370" y="770" width="150" height="30" as="geometry" />
        </mxCell>
        <mxCell id="XQa5Tmitrg0EJ_k_re5p-126" value="projeto" style="shape=table;startSize=30;container=1;collapsible=1;childLayout=tableLayout;fixedRows=1;rowLines=0;fontStyle=1;align=center;resizeLast=1;" parent="1" vertex="1">
          <mxGeometry x="-460" y="340" width="180" height="160" as="geometry" />
        </mxCell>
        <mxCell id="XQa5Tmitrg0EJ_k_re5p-127" value="" style="shape=tableRow;horizontal=0;startSize=0;swimlaneHead=0;swimlaneBody=0;fillColor=none;collapsible=0;dropTarget=0;points=[[0,0.5],[1,0.5]];portConstraint=eastwest;top=0;left=0;right=0;bottom=1;" parent="XQa5Tmitrg0EJ_k_re5p-126" vertex="1">
          <mxGeometry y="30" width="180" height="30" as="geometry" />
        </mxCell>
        <mxCell id="XQa5Tmitrg0EJ_k_re5p-128" value="PK" style="shape=partialRectangle;connectable=0;fillColor=none;top=0;left=0;bottom=0;right=0;fontStyle=1;overflow=hidden;" parent="XQa5Tmitrg0EJ_k_re5p-127" vertex="1">
          <mxGeometry width="30" height="30" as="geometry">
            <mxRectangle width="30" height="30" as="alternateBounds" />
          </mxGeometry>
        </mxCell>
        <mxCell id="XQa5Tmitrg0EJ_k_re5p-129" value="cod_projeto" style="shape=partialRectangle;connectable=0;fillColor=none;top=0;left=0;bottom=0;right=0;align=left;spacingLeft=6;fontStyle=5;overflow=hidden;" parent="XQa5Tmitrg0EJ_k_re5p-127" vertex="1">
          <mxGeometry x="30" width="150" height="30" as="geometry">
            <mxRectangle width="150" height="30" as="alternateBounds" />
          </mxGeometry>
        </mxCell>
        <mxCell id="XQa5Tmitrg0EJ_k_re5p-130" value="" style="shape=tableRow;horizontal=0;startSize=0;swimlaneHead=0;swimlaneBody=0;fillColor=none;collapsible=0;dropTarget=0;points=[[0,0.5],[1,0.5]];portConstraint=eastwest;top=0;left=0;right=0;bottom=0;" parent="XQa5Tmitrg0EJ_k_re5p-126" vertex="1">
          <mxGeometry y="60" width="180" height="30" as="geometry" />
        </mxCell>
        <mxCell id="XQa5Tmitrg0EJ_k_re5p-131" value="" style="shape=partialRectangle;connectable=0;fillColor=none;top=0;left=0;bottom=0;right=0;editable=1;overflow=hidden;" parent="XQa5Tmitrg0EJ_k_re5p-130" vertex="1">
          <mxGeometry width="30" height="30" as="geometry">
            <mxRectangle width="30" height="30" as="alternateBounds" />
          </mxGeometry>
        </mxCell>
        <mxCell id="XQa5Tmitrg0EJ_k_re5p-132" value="nome" style="shape=partialRectangle;connectable=0;fillColor=none;top=0;left=0;bottom=0;right=0;align=left;spacingLeft=6;overflow=hidden;" parent="XQa5Tmitrg0EJ_k_re5p-130" vertex="1">
          <mxGeometry x="30" width="150" height="30" as="geometry">
            <mxRectangle width="150" height="30" as="alternateBounds" />
          </mxGeometry>
        </mxCell>
        <mxCell id="XQa5Tmitrg0EJ_k_re5p-133" value="" style="shape=tableRow;horizontal=0;startSize=0;swimlaneHead=0;swimlaneBody=0;fillColor=none;collapsible=0;dropTarget=0;points=[[0,0.5],[1,0.5]];portConstraint=eastwest;top=0;left=0;right=0;bottom=0;" parent="XQa5Tmitrg0EJ_k_re5p-126" vertex="1">
          <mxGeometry y="90" width="180" height="30" as="geometry" />
        </mxCell>
        <mxCell id="XQa5Tmitrg0EJ_k_re5p-134" value="" style="shape=partialRectangle;connectable=0;fillColor=none;top=0;left=0;bottom=0;right=0;editable=1;overflow=hidden;" parent="XQa5Tmitrg0EJ_k_re5p-133" vertex="1">
          <mxGeometry width="30" height="30" as="geometry">
            <mxRectangle width="30" height="30" as="alternateBounds" />
          </mxGeometry>
        </mxCell>
        <mxCell id="XQa5Tmitrg0EJ_k_re5p-135" value="" style="shape=partialRectangle;connectable=0;fillColor=none;top=0;left=0;bottom=0;right=0;align=left;spacingLeft=6;overflow=hidden;" parent="XQa5Tmitrg0EJ_k_re5p-133" vertex="1">
          <mxGeometry x="30" width="150" height="30" as="geometry">
            <mxRectangle width="150" height="30" as="alternateBounds" />
          </mxGeometry>
        </mxCell>
        <mxCell id="XQa5Tmitrg0EJ_k_re5p-136" value="" style="shape=tableRow;horizontal=0;startSize=0;swimlaneHead=0;swimlaneBody=0;fillColor=none;collapsible=0;dropTarget=0;points=[[0,0.5],[1,0.5]];portConstraint=eastwest;top=0;left=0;right=0;bottom=0;" parent="XQa5Tmitrg0EJ_k_re5p-126" vertex="1">
          <mxGeometry y="120" width="180" height="30" as="geometry" />
        </mxCell>
        <mxCell id="XQa5Tmitrg0EJ_k_re5p-137" value="" style="shape=partialRectangle;connectable=0;fillColor=none;top=0;left=0;bottom=0;right=0;editable=1;overflow=hidden;" parent="XQa5Tmitrg0EJ_k_re5p-136" vertex="1">
          <mxGeometry width="30" height="30" as="geometry">
            <mxRectangle width="30" height="30" as="alternateBounds" />
          </mxGeometry>
        </mxCell>
        <mxCell id="XQa5Tmitrg0EJ_k_re5p-138" value="" style="shape=partialRectangle;connectable=0;fillColor=none;top=0;left=0;bottom=0;right=0;align=left;spacingLeft=6;overflow=hidden;" parent="XQa5Tmitrg0EJ_k_re5p-136" vertex="1">
          <mxGeometry x="30" width="150" height="30" as="geometry">
            <mxRectangle width="150" height="30" as="alternateBounds" />
          </mxGeometry>
        </mxCell>
        <mxCell id="XQa5Tmitrg0EJ_k_re5p-139" value="projeto_fazenda" style="shape=table;startSize=30;container=1;collapsible=1;childLayout=tableLayout;fixedRows=1;rowLines=0;fontStyle=1;align=center;resizeLast=1;" parent="1" vertex="1">
          <mxGeometry x="-200" y="340" width="180" height="160" as="geometry" />
        </mxCell>
        <mxCell id="XQa5Tmitrg0EJ_k_re5p-140" value="" style="shape=tableRow;horizontal=0;startSize=0;swimlaneHead=0;swimlaneBody=0;fillColor=none;collapsible=0;dropTarget=0;points=[[0,0.5],[1,0.5]];portConstraint=eastwest;top=0;left=0;right=0;bottom=0;" parent="XQa5Tmitrg0EJ_k_re5p-139" vertex="1">
          <mxGeometry y="30" width="180" height="30" as="geometry" />
        </mxCell>
        <mxCell id="XQa5Tmitrg0EJ_k_re5p-141" value="FK" style="shape=partialRectangle;connectable=0;fillColor=none;top=0;left=0;bottom=0;right=0;fontStyle=1;overflow=hidden;" parent="XQa5Tmitrg0EJ_k_re5p-140" vertex="1">
          <mxGeometry width="60" height="30" as="geometry">
            <mxRectangle width="60" height="30" as="alternateBounds" />
          </mxGeometry>
        </mxCell>
        <mxCell id="XQa5Tmitrg0EJ_k_re5p-142" value="cod_projeto" style="shape=partialRectangle;connectable=0;fillColor=none;top=0;left=0;bottom=0;right=0;align=left;spacingLeft=6;fontStyle=5;overflow=hidden;" parent="XQa5Tmitrg0EJ_k_re5p-140" vertex="1">
          <mxGeometry x="60" width="120" height="30" as="geometry">
            <mxRectangle width="120" height="30" as="alternateBounds" />
          </mxGeometry>
        </mxCell>
        <mxCell id="XQa5Tmitrg0EJ_k_re5p-143" value="" style="shape=tableRow;horizontal=0;startSize=0;swimlaneHead=0;swimlaneBody=0;fillColor=none;collapsible=0;dropTarget=0;points=[[0,0.5],[1,0.5]];portConstraint=eastwest;top=0;left=0;right=0;bottom=1;" parent="XQa5Tmitrg0EJ_k_re5p-139" vertex="1">
          <mxGeometry y="60" width="180" height="30" as="geometry" />
        </mxCell>
        <mxCell id="XQa5Tmitrg0EJ_k_re5p-144" value="FK" style="shape=partialRectangle;connectable=0;fillColor=none;top=0;left=0;bottom=0;right=0;fontStyle=1;overflow=hidden;" parent="XQa5Tmitrg0EJ_k_re5p-143" vertex="1">
          <mxGeometry width="60" height="30" as="geometry">
            <mxRectangle width="60" height="30" as="alternateBounds" />
          </mxGeometry>
        </mxCell>
        <mxCell id="XQa5Tmitrg0EJ_k_re5p-145" value="cod_fazenda" style="shape=partialRectangle;connectable=0;fillColor=none;top=0;left=0;bottom=0;right=0;align=left;spacingLeft=6;fontStyle=5;overflow=hidden;" parent="XQa5Tmitrg0EJ_k_re5p-143" vertex="1">
          <mxGeometry x="60" width="120" height="30" as="geometry">
            <mxRectangle width="120" height="30" as="alternateBounds" />
          </mxGeometry>
        </mxCell>
        <mxCell id="XQa5Tmitrg0EJ_k_re5p-146" value="" style="shape=tableRow;horizontal=0;startSize=0;swimlaneHead=0;swimlaneBody=0;fillColor=none;collapsible=0;dropTarget=0;points=[[0,0.5],[1,0.5]];portConstraint=eastwest;top=0;left=0;right=0;bottom=0;" parent="XQa5Tmitrg0EJ_k_re5p-139" vertex="1">
          <mxGeometry y="90" width="180" height="30" as="geometry" />
        </mxCell>
        <mxCell id="XQa5Tmitrg0EJ_k_re5p-147" value="" style="shape=partialRectangle;connectable=0;fillColor=none;top=0;left=0;bottom=0;right=0;editable=1;overflow=hidden;" parent="XQa5Tmitrg0EJ_k_re5p-146" vertex="1">
          <mxGeometry width="60" height="30" as="geometry">
            <mxRectangle width="60" height="30" as="alternateBounds" />
          </mxGeometry>
        </mxCell>
        <mxCell id="XQa5Tmitrg0EJ_k_re5p-148" value="" style="shape=partialRectangle;connectable=0;fillColor=none;top=0;left=0;bottom=0;right=0;align=left;spacingLeft=6;overflow=hidden;" parent="XQa5Tmitrg0EJ_k_re5p-146" vertex="1">
          <mxGeometry x="60" width="120" height="30" as="geometry">
            <mxRectangle width="120" height="30" as="alternateBounds" />
          </mxGeometry>
        </mxCell>
        <mxCell id="XQa5Tmitrg0EJ_k_re5p-149" value="" style="shape=tableRow;horizontal=0;startSize=0;swimlaneHead=0;swimlaneBody=0;fillColor=none;collapsible=0;dropTarget=0;points=[[0,0.5],[1,0.5]];portConstraint=eastwest;top=0;left=0;right=0;bottom=0;" parent="XQa5Tmitrg0EJ_k_re5p-139" vertex="1">
          <mxGeometry y="120" width="180" height="30" as="geometry" />
        </mxCell>
        <mxCell id="XQa5Tmitrg0EJ_k_re5p-150" value="" style="shape=partialRectangle;connectable=0;fillColor=none;top=0;left=0;bottom=0;right=0;editable=1;overflow=hidden;" parent="XQa5Tmitrg0EJ_k_re5p-149" vertex="1">
          <mxGeometry width="60" height="30" as="geometry">
            <mxRectangle width="60" height="30" as="alternateBounds" />
          </mxGeometry>
        </mxCell>
        <mxCell id="XQa5Tmitrg0EJ_k_re5p-151" value="" style="shape=partialRectangle;connectable=0;fillColor=none;top=0;left=0;bottom=0;right=0;align=left;spacingLeft=6;overflow=hidden;" parent="XQa5Tmitrg0EJ_k_re5p-149" vertex="1">
          <mxGeometry x="60" width="120" height="30" as="geometry">
            <mxRectangle width="120" height="30" as="alternateBounds" />
          </mxGeometry>
        </mxCell>
        <mxCell id="XQa5Tmitrg0EJ_k_re5p-152" value="" style="endArrow=none;html=1;rounded=0;" parent="1" edge="1">
          <mxGeometry relative="1" as="geometry">
            <mxPoint x="-360" y="400" as="sourcePoint" />
            <mxPoint x="-200" y="400" as="targetPoint" />
          </mxGeometry>
        </mxCell>
        <mxCell id="XQa5Tmitrg0EJ_k_re5p-153" value="N" style="resizable=0;html=1;align=right;verticalAlign=bottom;" parent="XQa5Tmitrg0EJ_k_re5p-152" connectable="0" vertex="1">
          <mxGeometry x="1" relative="1" as="geometry">
            <mxPoint x="-10" as="offset" />
          </mxGeometry>
        </mxCell>
        <mxCell id="XQa5Tmitrg0EJ_k_re5p-154" value="" style="endArrow=none;html=1;rounded=0;entryX=-0.017;entryY=-0.167;entryDx=0;entryDy=0;entryPerimeter=0;" parent="1" target="XQa5Tmitrg0EJ_k_re5p-103" edge="1">
          <mxGeometry relative="1" as="geometry">
            <mxPoint x="-20" y="400" as="sourcePoint" />
            <mxPoint x="-120" y="620" as="targetPoint" />
            <Array as="points">
              <mxPoint x="20" y="400" />
              <mxPoint x="20" y="540" />
              <mxPoint x="-120" y="540" />
              <mxPoint x="-120" y="625" />
            </Array>
          </mxGeometry>
        </mxCell>
        <mxCell id="XQa5Tmitrg0EJ_k_re5p-158" value="N" style="text;strokeColor=none;fillColor=none;spacingLeft=4;spacingRight=4;overflow=hidden;rotatable=0;points=[[0,0.5],[1,0.5]];portConstraint=eastwest;fontSize=12;" parent="1" vertex="1">
          <mxGeometry x="-20" y="370" width="40" height="30" as="geometry" />
        </mxCell>
      </root>
    </mxGraphModel>
  </diagram>
</mxfile>
